<?xml version="1.0" encoding="UTF-8"?>
<svg width="42px" height="39px" viewBox="0 0 42 39" version="1.1" xmlns="http://www.w3.org/2000/svg" xmlns:xlink="http://www.w3.org/1999/xlink">
    <!-- Generator: Sketch 48.2 (47327) - http://www.bohemiancoding.com/sketch -->
    <title>‘‘</title>
    <desc>Created with Sketch.</desc>
    <defs></defs>
    <g id="halo-home-page-2" stroke="none" stroke-width="1" fill="none" fill-rule="evenodd" transform="translate(-240.000000, -1199.000000)">
        <g id="section-3" transform="translate(0.000000, 1106.000000)" fill="#0A4340">
            <g id="Group-8" transform="translate(240.000000, 93.000000)">
                <path d="M17.5566406,0.060546875 L17.5566406,5.11914062 C15.3691297,5.75716465 13.7285211,7.3635939 12.6347656,9.93847656 C11.5410102,12.5133592 10.9941406,16.0566181 10.9941406,20.5683594 L10.9941406,22.0039062 L17.5566406,22.0039062 L17.5566406,38.8203125 L0.671875,38.8203125 L0.671875,24.1914062 C0.671875,16.7629837 2.07322817,11.0322467 4.87597656,6.99902344 C7.67872495,2.96580015 11.9055707,0.652997754 17.5566406,0.060546875 Z M41.8535156,0.060546875 L41.8535156,5.11914062 C39.6660047,5.75716465 38.0253961,7.3635939 36.9316406,9.93847656 C35.8378852,12.5133592 35.2910156,16.0566181 35.2910156,20.5683594 L35.2910156,22.0039062 L41.8535156,22.0039062 L41.8535156,38.8203125 L24.96875,38.8203125 L24.96875,24.1914062 C24.96875,16.7629837 26.3701032,11.0322467 29.1728516,6.99902344 C31.9756,2.96580015 36.2024457,0.652997754 41.8535156,0.060546875 Z" id="‘‘"></path>
            </g>
        </g>
    </g>
</svg>